<svg width="217" height="26" viewBox="0 0 217 26" fill="none" xmlns="http://www.w3.org/2000/svg">
<path d="M15.376 9.224C15.376 11.08 14.736 12.6267 13.456 13.864C12.1973 15.08 10.2667 15.688 7.664 15.688H3.376V25H0.464V2.696H7.664C10.1813 2.696 12.0907 3.304 13.392 4.52C14.7147 5.736 15.376 7.304 15.376 9.224ZM7.664 13.288C9.28533 13.288 10.48 12.936 11.248 12.232C12.016 11.528 12.4 10.5253 12.4 9.224C12.4 6.472 10.8213 5.096 7.664 5.096H3.376V13.288H7.664ZM34.9953 15.56C34.9953 16.1147 34.9633 16.7013 34.8993 17.32H20.8833C20.9899 19.048 21.5766 20.4027 22.6433 21.384C23.7313 22.344 25.0433 22.824 26.5793 22.824C27.8379 22.824 28.8833 22.536 29.7153 21.96C30.5686 21.3627 31.1659 20.5733 31.5073 19.592H34.6433C34.1739 21.2773 33.2353 22.6533 31.8273 23.72C30.4193 24.7653 28.6699 25.288 26.5793 25.288C24.9153 25.288 23.4219 24.9147 22.0993 24.168C20.7979 23.4213 19.7739 22.3653 19.0273 21C18.2806 19.6133 17.9073 18.0133 17.9073 16.2C17.9073 14.3867 18.2699 12.7973 18.9953 11.432C19.7206 10.0667 20.7339 9.02133 22.0353 8.296C23.3579 7.54933 24.8726 7.176 26.5793 7.176C28.2433 7.176 29.7153 7.53867 30.9953 8.264C32.2753 8.98933 33.2566 9.992 33.9393 11.272C34.6433 12.5307 34.9953 13.96 34.9953 15.56ZM31.9873 14.952C31.9873 13.8427 31.7419 12.8933 31.2513 12.104C30.7606 11.2933 30.0886 10.6853 29.2353 10.28C28.4033 9.85333 27.4753 9.64 26.4513 9.64C24.9793 9.64 23.7206 10.1093 22.6753 11.048C21.6513 11.9867 21.0646 13.288 20.9153 14.952H31.9873ZM37.751 16.168C37.751 14.376 38.1137 12.808 38.839 11.464C39.5643 10.0987 40.5563 9.04267 41.815 8.296C43.095 7.54933 44.5243 7.176 46.103 7.176C47.4683 7.176 48.7377 7.496 49.911 8.136C51.0843 8.75467 51.9803 9.576 52.599 10.6V1.32H55.543V25H52.599V21.704C52.023 22.7493 51.1697 23.6133 50.039 24.296C48.9083 24.9573 47.5857 25.288 46.071 25.288C44.5137 25.288 43.095 24.904 41.815 24.136C40.5563 23.368 39.5643 22.2907 38.839 20.904C38.1137 19.5173 37.751 17.9387 37.751 16.168ZM52.599 16.2C52.599 14.8773 52.3323 13.7253 51.799 12.744C51.2657 11.7627 50.5403 11.016 49.623 10.504C48.727 9.97067 47.735 9.704 46.647 9.704C45.559 9.704 44.567 9.96 43.671 10.472C42.775 10.984 42.0603 11.7307 41.527 12.712C40.9937 13.6933 40.727 14.8453 40.727 16.168C40.727 17.512 40.9937 18.6853 41.527 19.688C42.0603 20.6693 42.775 21.4267 43.671 21.96C44.567 22.472 45.559 22.728 46.647 22.728C47.735 22.728 48.727 22.472 49.623 21.96C50.5403 21.4267 51.2657 20.6693 51.799 19.688C52.3323 18.6853 52.599 17.5227 52.599 16.2ZM63.376 10.312C63.888 9.30933 64.6133 8.53067 65.552 7.976C66.512 7.42133 67.6747 7.144 69.04 7.144V10.152H68.272C65.008 10.152 63.376 11.9227 63.376 15.464V25H60.464V7.464H63.376V10.312ZM80.0495 25.288C78.4068 25.288 76.9135 24.9147 75.5695 24.168C74.2468 23.4213 73.2015 22.3653 72.4335 21C71.6868 19.6133 71.3135 18.0133 71.3135 16.2C71.3135 14.408 71.6975 12.8293 72.4655 11.464C73.2548 10.0773 74.3215 9.02133 75.6655 8.296C77.0095 7.54933 78.5135 7.176 80.1775 7.176C81.8415 7.176 83.3455 7.54933 84.6895 8.296C86.0335 9.02133 87.0895 10.0667 87.8575 11.432C88.6468 12.7973 89.0415 14.3867 89.0415 16.2C89.0415 18.0133 88.6362 19.6133 87.8255 21C87.0362 22.3653 85.9588 23.4213 84.5935 24.168C83.2282 24.9147 81.7135 25.288 80.0495 25.288ZM80.0495 22.728C81.0948 22.728 82.0762 22.4827 82.9935 21.992C83.9108 21.5013 84.6468 20.7653 85.2015 19.784C85.7775 18.8027 86.0655 17.608 86.0655 16.2C86.0655 14.792 85.7882 13.5973 85.2335 12.616C84.6788 11.6347 83.9535 10.9093 83.0575 10.44C82.1615 9.94933 81.1908 9.704 80.1455 9.704C79.0788 9.704 78.0975 9.94933 77.2015 10.44C76.3268 10.9093 75.6228 11.6347 75.0895 12.616C74.5562 13.5973 74.2895 14.792 74.2895 16.2C74.2895 17.6293 74.5455 18.8347 75.0575 19.816C75.5908 20.7973 76.2948 21.5333 77.1695 22.024C78.0442 22.4933 79.0042 22.728 80.0495 22.728ZM118.586 2.696V25H115.674V14.888H104.314V25H101.402V2.696H104.314V12.488H115.674V2.696H118.586ZM139.558 15.56C139.558 16.1147 139.526 16.7013 139.462 17.32H125.446C125.552 19.048 126.139 20.4027 127.206 21.384C128.294 22.344 129.606 22.824 131.142 22.824C132.4 22.824 133.446 22.536 134.278 21.96C135.131 21.3627 135.728 20.5733 136.07 19.592H139.206C138.736 21.2773 137.798 22.6533 136.39 23.72C134.982 24.7653 133.232 25.288 131.142 25.288C129.478 25.288 127.984 24.9147 126.662 24.168C125.36 23.4213 124.336 22.3653 123.59 21C122.843 19.6133 122.47 18.0133 122.47 16.2C122.47 14.3867 122.832 12.7973 123.558 11.432C124.283 10.0667 125.296 9.02133 126.598 8.296C127.92 7.54933 129.435 7.176 131.142 7.176C132.806 7.176 134.278 7.53867 135.558 8.264C136.838 8.98933 137.819 9.992 138.502 11.272C139.206 12.5307 139.558 13.96 139.558 15.56ZM136.55 14.952C136.55 13.8427 136.304 12.8933 135.814 12.104C135.323 11.2933 134.651 10.6853 133.798 10.28C132.966 9.85333 132.038 9.64 131.014 9.64C129.542 9.64 128.283 10.1093 127.238 11.048C126.214 11.9867 125.627 13.288 125.478 14.952H136.55ZM151.946 7.144C154.079 7.144 155.807 7.79467 157.13 9.096C158.452 10.376 159.114 12.232 159.114 14.664V25H156.234V15.08C156.234 13.3307 155.796 11.9973 154.922 11.08C154.047 10.1413 152.852 9.672 151.338 9.672C149.802 9.672 148.575 10.152 147.658 11.112C146.762 12.072 146.314 13.4693 146.314 15.304V25H143.402V7.464H146.314V9.96C146.89 9.064 147.668 8.37067 148.65 7.88C149.652 7.38933 150.751 7.144 151.946 7.144ZM166.782 10.312C167.294 9.30933 168.02 8.53067 168.958 7.976C169.918 7.42133 171.081 7.144 172.446 7.144V10.152H171.678C168.414 10.152 166.782 11.9227 166.782 15.464V25H163.87V7.464H166.782V10.312ZM177.312 4.616C176.757 4.616 176.288 4.424 175.904 4.04C175.52 3.656 175.328 3.18667 175.328 2.632C175.328 2.07733 175.52 1.608 175.904 1.224C176.288 0.839999 176.757 0.647999 177.312 0.647999C177.845 0.647999 178.293 0.839999 178.656 1.224C179.04 1.608 179.232 2.07733 179.232 2.632C179.232 3.18667 179.04 3.656 178.656 4.04C178.293 4.424 177.845 4.616 177.312 4.616ZM178.72 7.464V25H175.808V7.464H178.72ZM182.595 16.2C182.595 14.3867 182.957 12.808 183.683 11.464C184.408 10.0987 185.411 9.04267 186.691 8.296C187.992 7.54933 189.475 7.176 191.139 7.176C193.293 7.176 195.064 7.69867 196.451 8.744C197.859 9.78933 198.787 11.24 199.235 13.096H196.099C195.8 12.0293 195.213 11.1867 194.339 10.568C193.485 9.94933 192.419 9.64 191.139 9.64C189.475 9.64 188.131 10.216 187.107 11.368C186.083 12.4987 185.571 14.1093 185.571 16.2C185.571 18.312 186.083 19.944 187.107 21.096C188.131 22.248 189.475 22.824 191.139 22.824C192.419 22.824 193.485 22.5253 194.339 21.928C195.192 21.3307 195.779 20.4773 196.099 19.368H199.235C198.765 21.16 197.827 22.6 196.419 23.688C195.011 24.7547 193.251 25.288 191.139 25.288C189.475 25.288 187.992 24.9147 186.691 24.168C185.411 23.4213 184.408 22.3653 183.683 21C182.957 19.6347 182.595 18.0347 182.595 16.2ZM212.912 25L206.032 17.256V25H203.12V1.32H206.032V15.24L212.784 7.464H216.848L208.592 16.2L216.88 25H212.912Z" fill="url(#paint0_linear_32_54)"/>
<defs>
<linearGradient id="paint0_linear_32_54" x1="-2" y1="14" x2="280.339" y2="48.2563" gradientUnits="userSpaceOnUse">
<stop stop-color="#00BFFF"/>
<stop offset="1" stop-color="#DCDCDC"/>
</linearGradient>
</defs>
</svg>
