<svg width="461" height="391" viewBox="0 0 461 391" fill="none" xmlns="http://www.w3.org/2000/svg">
<path fill-rule="evenodd" clip-rule="evenodd" d="M62.4996 0.716187H0V333.961H62.4996V178.705H152.198V390.067H215.276V256.575H255.207V333.961H317.706V256.575H353.586V256.52C354.738 256.557 355.896 256.575 357.058 256.575C414.267 256.575 460.645 211.967 460.645 156.94C460.645 101.913 414.267 57.305 357.058 57.305C357.058 57.305 354.743 57.305 353.586 57.305H317.706V0.716187H255.207V57.305H152.198V134.691H62.4996V0.716187ZM162.036 383.779V178.705H205.438V218.849H353.586V218.842C353.874 218.847 354.164 218.849 354.454 218.849C384.976 218.849 409.719 190.915 409.719 156.456C409.719 121.998 384.976 94.0635 354.454 94.0635C354.164 94.0635 348.377 94.0585 348.088 94.0635H346.352H205.438V134.691H162.036V64.0763H309.604C311.63 64.0763 341.722 64.0763 343.748 64.0763C400.957 64.0763 409.719 105.169 409.719 156.456C409.719 207.744 397.018 248.165 339.808 248.165C337.67 248.165 311.71 249.918 309.604 249.804H343.748H205.438V383.779H162.036ZM263.887 172.901V212.078H309.604V100.835H263.887V140.012V140.495H262.73H54.3978H53.8191V140.012V6.52017H8.1018V328.157H53.8191V172.901H263.887ZM215.276 212.078V178.705H255.207V212.078H215.276ZM337.977 212.07V156.456V100.842L352.428 100.835V100.842C380.633 101.34 403.354 126.049 403.354 156.456C403.354 186.864 380.633 211.572 352.428 212.07V212.078L337.977 212.07ZM255.207 134.691H215.276V100.835H255.207V134.691ZM309.604 57.305H263.887V6.52017H309.604V57.305ZM263.887 256.575H309.604V328.157H263.887V256.575Z" fill="#73FBFD"/>
</svg>
